# xmcd
#
# Track frame offsets: 
#        150
#        17815
#        31683
#        46189
#        59973
#        75394
#        93512
#        108698
#        126847
#        143822
#        159417
#        174552
#
# Disc length: 2523 seconds
#
# Revision: 0
# Processed by: cddbd v1.5.2PL0 Copyright (c) Steve Scherf et al.
# Submitted via: ExactAudioCopy v0.95b3
#
DISCID=9b09d90c
DTITLE=Gabrielle - Always
DYEAR=2007
DGENRE=R&B
TTITLE0=Always
TTITLE1=Heartbreaker
TTITLE2=Why
TTITLE3=I Remember
TTITLE4=Every Little Teardrop
TTITLE5=I'm Not In Love
TTITLE6=Love Me Like You Do
TTITLE7=Wiser
TTITLE8=All I Want
TTITLE9=It's Breaking My Heart
TTITLE10=Cold Sober Moment
TTITLE11=Show Me Love
EXTD=
EXTT0=
EXTT1=
EXTT2=
EXTT3=
EXTT4=
EXTT5=
EXTT6=
EXTT7=
EXTT8=
EXTT9=
EXTT10=
EXTT11=
PLAYORDER=
